<svg height="496pt" viewBox="0 0 496 496" width="496pt" xmlns="http://www.w3.org/2000/svg"><path d="m496 160v-48h-152v-32h80v-80h-96v112h-112v-32h80v-80h-96v112h-112v-32h80v-80h-96v112h-72v48h32v288.808594c-18.230469 3.71875-32 19.878906-32 39.191406v8h496v-8c0-19.3125-13.769531-35.472656-32-39.191406v-288.808594zm-152-144h64v48h-64zm-128 0h64v48h-64zm-128 0h64v48h-64zm-72 112h464v16h-464zm462.632812 352h-461.265624c3.304687-9.3125 12.199218-16 22.632812-16h416c10.433594 0 19.328125 6.6875 22.632812 16zm-273.976562-208h-124.65625v-16h116.703125c2.039063 5.648438 4.710937 11.007812 7.953125 16zm94.640625-16h116.703125v16h-124.65625c3.242188-4.992188 5.914062-10.351562 7.953125-16zm-11.296875-26.601562c0 25.921874-15.960938 48.9375-40 58.105468-24.039062-9.167968-40-32.183594-40-58.105468v-23.636719l40-13.335938 40 13.335938zm-69.585938 58.601562c7.714844 6.816406 16.84375 12.183594 27.058594 15.59375l2.527344.839844 2.527344-.839844c10.214844-3.402344 19.335937-8.777344 27.058594-15.59375h138.414062v32h-336v-32zm165.585938 160v-112h16v112zm-64 0h-48v-64h48zm-64-80v80h-16v-80h-80v80h-32v-112h240v112h-32v-80zm-32 80h-48v-64h48zm-112-112v112h-16v-112zm336 112h-32v-112h16v-96h-128.769531c.472656-3.480469.769531-7.007812.769531-10.601562v-35.167969l-56-18.664063-56 18.664063v35.167969c0 3.585937.296875 7.121093.769531 10.601562h-128.769531v96h16v112h-32v-288h400zm0 0"/><path d="m112 176h-48v48h48zm-16 32h-16v-16h16zm0 0"/><path d="m176 176h-48v48h48zm-16 32h-16v-16h16zm0 0"/><path d="m368 176h-48v48h48zm-16 32h-16v-16h16zm0 0"/><path d="m432 176h-48v48h48zm-16 32h-16v-16h16zm0 0"/></svg>